<?xml version="1.0" encoding="iso-8859-1"?>
<!-- Generator: Adobe Illustrator 19.0.0, SVG Export Plug-In . SVG Version: 6.00 Build 0)  -->
<svg version="1.1" id="Capa_1" xmlns="http://www.w3.org/2000/svg" xmlns:xlink="http://www.w3.org/1999/xlink" x="0px" y="0px"
	 viewBox="0 0 512 512" style="enable-background:new 0 0 512 512;" xml:space="preserve">
<circle style="fill:#7AE5FE;" cx="256" cy="256" r="256"/>
<path style="fill:#00BED2;" d="M512,256c0-2.842-0.063-5.668-0.155-8.487L395.951,131.618l-1.577,9.755L338.5,85.5l-19.387,116.593
	l-76.878-76.879l0.425,12.445L190.5,85.5l-25.658,152.989L89.75,252.626l56.276,56.276L89.75,321.063l51.343,51.343L89.75,389.5
	l117.925,117.925C223.327,510.416,239.477,512,256,512C397.385,512,512,397.385,512,256z"/>
<rect x="173.5" y="85.5" style="fill:#813531;" width="17" height="64.67"/>
<rect x="181.17" y="85.5" style="fill:#5E2423;" width="9.333" height="64.67"/>
<path style="fill:#DC2C00;" d="M247.951,131.618c-12.111-16.645-34.562-22.799-53.164-13.983c-3.876,1.837-8.211,2.865-12.787,2.865
	c-4.567,0-8.894-1.024-12.765-2.855c-18.883-8.93-41.526-2.39-53.651,14.619c-9.987,14.011-15.65,31.316-15.039,49.973
	c1.138,34.74,24.37,64.286,56.112,74.726c4.649,1.529,9.676,0.777,13.803-1.853c3.028-1.93,7.08-3.11,11.54-3.11
	c4.47,0,8.531,1.186,11.561,3.124c3.993,2.553,8.87,3.431,13.382,1.981c32.81-10.536,56.557-41.295,56.557-77.605
	C263.5,161.604,257.73,145.059,247.951,131.618z"/>
<path style="fill:#C92C00;" d="M247.951,131.618c-12.111-16.645-34.562-22.799-53.164-13.983c-3.876,1.837-8.211,2.865-12.787,2.865
	c-0.28,0-0.555-0.016-0.833-0.023v131.551c0.278-0.009,0.552-0.027,0.833-0.027c4.47,0,8.531,1.186,11.561,3.124
	c3.993,2.553,8.87,3.431,13.382,1.981c32.81-10.536,56.557-41.295,56.557-77.605C263.5,161.604,257.73,145.059,247.951,131.618z"/>
<rect x="321.5" y="85.5" style="fill:#813531;" width="17" height="64.67"/>
<rect x="329.38" y="85.5" style="fill:#5E2423;" width="9.119" height="64.67"/>
<path style="fill:#BE360C;" d="M395.951,131.618c-12.111-16.645-34.562-22.799-53.164-13.983c-3.876,1.837-8.211,2.865-12.787,2.865
	c-4.567,0-8.894-1.024-12.765-2.855c-18.883-8.93-41.526-2.39-53.651,14.619c-9.987,14.011-15.65,31.316-15.039,49.973
	c1.138,34.74,24.37,64.286,56.112,74.726c4.649,1.529,9.676,0.777,13.803-1.853c3.028-1.93,7.08-3.11,11.54-3.11
	c4.47,0,8.531,1.186,11.561,3.124c3.993,2.553,8.87,3.431,13.382,1.981c32.81-10.536,56.557-41.295,56.557-77.605
	C411.5,161.604,405.73,145.059,395.951,131.618z"/>
<path style="fill:#9E2707;" d="M395.951,131.618c-12.111-16.645-34.562-22.799-53.164-13.983c-3.876,1.837-8.211,2.865-12.787,2.865
	c-0.208,0-0.412-0.013-0.619-0.017v131.538c0.207-0.005,0.41-0.021,0.619-0.021c4.47,0,8.531,1.186,11.562,3.124
	c3.993,2.553,8.87,3.431,13.382,1.981C387.753,246.569,411.5,215.81,411.5,179.5C411.5,161.604,405.73,145.059,395.951,131.618z"/>
<rect x="99.5" y="211.5" style="fill:#854830;" width="313" height="170.5"/>
<rect x="255.57" y="211.5" style="fill:#633425;" width="156.93" height="170.5"/>
<rect x="89.75" y="201.5" style="fill:#AB6A50;" width="332.5" height="51.13"/>
<rect x="255.57" y="201.5" style="fill:#854830;" width="166.68" height="51.13"/>
<rect x="89.75" y="269.94" style="fill:#AB6A50;" width="332.5" height="51.13"/>
<rect x="255.57" y="269.94" style="fill:#854830;" width="166.68" height="51.13"/>
<rect x="89.75" y="338.37" style="fill:#AB6A50;" width="332.5" height="51.13"/>
<rect x="255.57" y="338.37" style="fill:#854830;" width="166.68" height="51.13"/>
<g>
</g>
<g>
</g>
<g>
</g>
<g>
</g>
<g>
</g>
<g>
</g>
<g>
</g>
<g>
</g>
<g>
</g>
<g>
</g>
<g>
</g>
<g>
</g>
<g>
</g>
<g>
</g>
<g>
</g>
</svg>
