<?xml version="1.0" encoding="iso-8859-1"?>
<!-- Generator: Adobe Illustrator 19.0.0, SVG Export Plug-In . SVG Version: 6.00 Build 0)  -->
<svg version="1.1" id="Capa_1" xmlns="http://www.w3.org/2000/svg" xmlns:xlink="http://www.w3.org/1999/xlink" x="0px" y="0px"
	 viewBox="0 0 512 512" style="enable-background:new 0 0 512 512;" xml:space="preserve">
<circle style="fill:#228CE4;" cx="256" cy="256" r="256"/>
<path style="fill:#0666A9;" d="M256.729,511.991C397.778,511.597,512,397.141,512,256c0-4.237-0.109-8.448-0.313-12.635
	L409.789,141.466l-307.577,60.567l137.771,137.771l-77.911,77.529L256.729,511.991z"/>
<polygon style="fill:#EBEEF0;" points="349.929,417.333 162.071,417.333 108.5,152 403.5,152 "/>
<polygon style="fill:#CED7DB;" points="403.5,152 255.571,152 255.571,417.333 349.929,417.333 "/>
<path style="fill:#607D8A;" d="M282.589,300.64h-53.178c-63.828,0-115.757-51.928-115.757-115.756V184h19.279v0.884
	c0,53.197,43.279,96.477,96.478,96.477h53.178c53.198,0,96.478-43.279,96.478-96.477V184h19.279v0.884
	C398.346,248.712,346.417,300.64,282.589,300.64z"/>
<path style="fill:#546E7A;" d="M379.066,184v0.884c0,53.197-43.279,96.477-96.478,96.477H255.57v19.279h27.018
	c63.828,0,115.757-51.928,115.757-115.756V184H379.066z"/>
<rect x="102.21" y="141.47" style="fill:#788F9B;" width="307.58" height="60.57"/>
<rect x="255.57" y="141.47" style="fill:#607D8A;" width="154.22" height="60.57"/>
<rect x="201.5" y="271.5" style="fill:#AB6A50;" width="109" height="37.5"/>
<rect x="255.57" y="271.5" style="fill:#854830;" width="54.929" height="37.5"/>
<g>
</g>
<g>
</g>
<g>
</g>
<g>
</g>
<g>
</g>
<g>
</g>
<g>
</g>
<g>
</g>
<g>
</g>
<g>
</g>
<g>
</g>
<g>
</g>
<g>
</g>
<g>
</g>
<g>
</g>
</svg>
