<?xml version="1.0" encoding="iso-8859-1"?>
<!-- Generator: Adobe Illustrator 19.0.0, SVG Export Plug-In . SVG Version: 6.00 Build 0)  -->
<svg version="1.1" id="Capa_1" xmlns="http://www.w3.org/2000/svg" xmlns:xlink="http://www.w3.org/1999/xlink" x="0px" y="0px"
	 viewBox="0 0 512 512" style="enable-background:new 0 0 512 512;" xml:space="preserve">
<circle style="fill:#FBD747;" cx="256" cy="256" r="256"/>
<path style="fill:#E9BA13;" d="M511.753,266.893L319.832,74.972l-5.553,37.234l-44.703-44.703l2.948,71.325l-59.763-59.763
	l72.109,230.327l111.715,160.564C463.267,426.052,508.197,351.825,511.753,266.893z"/>
<path style="fill:#795548;" d="M0.18,246.863C0.073,249.897,0,252.94,0,256c0,141.385,114.615,256,256,256s256-114.615,256-256
	c0-3.06-0.073-6.103-0.18-9.137H0.18z"/>
<path style="fill:#6D4C41;" d="M511.82,246.863H255.571v265.132c0.143,0,0.285,0.005,0.429,0.005c141.385,0,256-114.615,256-256
	C512,252.94,511.927,249.897,511.82,246.863z"/>
<path style="fill:#39B54A;" d="M256,62c-10.218,0-18.705,7.881-19.465,18.071c-4.292,57.564,2.194,119.424,19.465,163.997l0,0l0,0
	c17.271-44.573,23.757-106.432,19.465-163.997C274.705,69.881,266.218,62,256,62L256,62z"/>
<path style="fill:#009245;" d="M275.465,80.071C274.705,69.881,266.218,62,256,62c-0.145,0-0.285,0.017-0.429,0.021v180.905
	c0.144,0.378,0.283,0.766,0.429,1.142l0,0C273.271,199.495,279.757,137.635,275.465,80.071z"/>
<path style="fill:#006837;" d="M315.561,72.241c-7.615-3.246-16.421,0.123-19.948,7.612
	c-28.722,60.967-45.757,139.036-40.448,196.912l0,0l0,0c35.082-46.356,61.847-121.675,69.644-188.63
	C325.596,81.375,321.821,74.91,315.561,72.241L315.561,72.241z"/>
<path style="fill:#009245;" d="M195.512,76.346L195.512,76.346c-6.533,2.878-10.424,9.708-9.507,16.787
	c8.515,65.676,34.818,138.425,69.029,183.631l0,0l0,0c5.178-56.446-10.898-132.1-38.342-192.363
	C213.036,76.37,203.588,72.789,195.512,76.346z"/>
<path style="fill:#FE9A35;" d="M289.556,275.913c0,16.572-15.024,175.848-33.556,175.848s-33.556-159.276-33.556-175.848
	c0-16.572,15.024-22.577,33.556-22.577S289.556,259.341,289.556,275.913z"/>
<path style="fill:#FF7C11;" d="M256,253.337c-0.144,0-0.285,0.004-0.429,0.004v198.391c0.143,0.019,0.286,0.029,0.429,0.029
	c18.532,0,33.556-159.276,33.556-175.848C289.556,259.341,274.532,253.337,256,253.337z"/>
<g>
	<path style="fill:#EE6C00;" d="M223.084,287.667H252v-10.902h-29.546C222.502,278.969,222.717,282.724,223.084,287.667z"/>
	<path style="fill:#EE6C00;" d="M260,365.098h-28.434c0.511,3.647,1.04,7.289,1.586,10.902H260V365.098z"/>
</g>
<rect x="255.57" y="365.1" style="fill:#E55100;" width="4.429" height="10.902"/>
<path style="fill:#EE6C00;" d="M288.407,294.098h-30.74V305h29.77C287.806,301.072,288.131,297.414,288.407,294.098z"/>
<path style="fill:#E55100;" d="M288.407,294.098h-30.74V305h29.77C287.806,301.072,288.131,297.414,288.407,294.098z"/>
<path style="fill:#EE6C00;" d="M229.046,346h43.287v-10.902h-44.598C228.151,338.673,228.588,342.316,229.046,346z"/>
<rect x="255.57" y="335.1" style="fill:#E55100;" width="16.762" height="10.902"/>
<g>
</g>
<g>
</g>
<g>
</g>
<g>
</g>
<g>
</g>
<g>
</g>
<g>
</g>
<g>
</g>
<g>
</g>
<g>
</g>
<g>
</g>
<g>
</g>
<g>
</g>
<g>
</g>
<g>
</g>
</svg>
