<?xml version="1.0" encoding="iso-8859-1"?>
<!-- Generator: Adobe Illustrator 19.0.0, SVG Export Plug-In . SVG Version: 6.00 Build 0)  -->
<svg version="1.1" id="Capa_1" xmlns="http://www.w3.org/2000/svg" xmlns:xlink="http://www.w3.org/1999/xlink" x="0px" y="0px"
	 viewBox="0 0 512 512" style="enable-background:new 0 0 512 512;" xml:space="preserve">
<circle style="fill:#228CE4;" cx="256" cy="256" r="256"/>
<path style="fill:#0666A9;" d="M511.939,260.806L365.925,114.792L354.1,273.159L256,175.058l5.573,55.232L146.075,114.792
	L90.738,310.094L290.344,509.7C413.937,493.126,509.589,388.375,511.939,260.806z"/>
<path style="fill:#E0F4FD;" d="M228.592,248.883c0,45.573-36.944,82.517-82.517,82.517s-82.517-36.944-82.517-82.517
	s82.517-134.091,82.517-134.091S228.592,203.31,228.592,248.883z"/>
<path style="fill:#B2E4FB;" d="M146.075,331.4c45.573,0,82.517-36.944,82.517-82.517s-82.517-134.091-82.517-134.091V331.4z"/>
<path style="fill:#E0F4FD;" d="M448.443,248.883c0,45.573-36.944,82.517-82.517,82.517s-82.517-36.944-82.517-82.517
	s82.517-134.091,82.517-134.091S448.443,203.31,448.443,248.883z"/>
<g>
	<path style="fill:#B2E4FB;" d="M365.69,331.394c0.079,0,0.156,0.006,0.235,0.006c45.573,0,82.517-36.944,82.517-82.517
		s-82.517-134.091-82.517-134.091L365.69,331.394z"/>
	<path style="fill:#B2E4FB;" d="M338.517,309.149c0,45.573-36.944,82.517-82.517,82.517s-82.517-36.944-82.517-82.517
		S256,175.058,256,175.058S338.517,263.576,338.517,309.149z"/>
</g>
<path style="fill:#80D3F9;" d="M255.571,391.656c0.144,0.001,0.285,0.011,0.429,0.011c45.573,0,82.517-36.944,82.517-82.517
	S256,175.059,256,175.059L255.571,391.656z"/>
<g>
</g>
<g>
</g>
<g>
</g>
<g>
</g>
<g>
</g>
<g>
</g>
<g>
</g>
<g>
</g>
<g>
</g>
<g>
</g>
<g>
</g>
<g>
</g>
<g>
</g>
<g>
</g>
<g>
</g>
</svg>
