<?xml version="1.0" encoding="iso-8859-1"?>
<!-- Generator: Adobe Illustrator 19.0.0, SVG Export Plug-In . SVG Version: 6.00 Build 0)  -->
<svg version="1.1" id="Capa_1" xmlns="http://www.w3.org/2000/svg" xmlns:xlink="http://www.w3.org/1999/xlink" x="0px" y="0px"
	 viewBox="0 0 512 512" style="enable-background:new 0 0 512 512;" xml:space="preserve">
<circle style="fill:#228CE4;" cx="256" cy="256" r="256"/>
<path style="fill:#0666A9;" d="M511.945,260.369L409.451,157.875l-6.162,25.081L280.333,60l-9.3,160.194l-90.173-90.173L148.667,429
	l81.729,81.729C238.818,511.565,247.358,512,256,512C395.924,512,509.61,399.736,511.945,260.369z"/>
<path style="fill:#FEC928;" d="M349.125,167.125c0-14.974-11.112-27.345-25.538-29.338c-1.992-14.426-14.364-25.537-29.337-25.537
	s-27.345,11.112-29.337,25.538c-14.426,1.992-25.537,14.364-25.537,29.338s11.111,27.345,25.537,29.337
	C266.904,210.889,279.276,222,294.25,222s27.345-11.111,29.337-25.537C338.013,194.471,349.125,182.099,349.125,167.125z"/>
<path style="fill:#FEB200;" d="M323.587,137.787c-1.992-14.426-14.364-25.537-29.337-25.537c-0.196,0-0.388,0.01-0.583,0.013
	v109.723c0.195,0.004,0.387,0.013,0.583,0.013c14.974,0,27.345-11.111,29.337-25.537c14.426-1.992,25.538-14.364,25.538-29.338
	S338.013,139.78,323.587,137.787z"/>
<path style="fill:#FEC928;" d="M296.666,191.673c0-14.974-11.112-27.345-25.538-29.338c-1.992-14.426-14.364-25.537-29.337-25.537
	c-14.974,0-27.345,11.112-29.337,25.538c-14.426,1.992-25.537,14.364-25.537,29.338s11.111,27.345,25.537,29.337
	c1.992,14.426,14.364,25.537,29.337,25.537c14.974,0,27.345-11.111,29.337-25.537C285.555,219.019,296.666,206.647,296.666,191.673z
	"/>
<circle style="fill:#FE9F00;" cx="294.25" cy="167.12" r="18.625"/>
<path style="fill:#FE8E00;" d="M294.25,148.5c-0.197,0-0.388,0.023-0.583,0.029v37.191c0.195,0.006,0.386,0.029,0.583,0.029
	c10.286,0,18.625-8.339,18.625-18.625S304.536,148.5,294.25,148.5z"/>
<path style="fill:#FEC300;" d="M208.416,231.375c0-14.974-11.112-27.345-25.538-29.338c-1.992-14.426-14.364-25.537-29.337-25.537
	s-27.345,11.112-29.337,25.538c-14.426,1.992-25.537,14.364-25.537,29.338s11.111,27.345,25.537,29.337
	c1.992,14.426,14.364,25.537,29.337,25.537s27.345-11.111,29.337-25.537C197.305,258.721,208.416,246.349,208.416,231.375z"/>
<polygon style="fill:#795548;" points="363.333,429 148.667,429 98.667,240.333 413.333,240.333 "/>
<polygon style="fill:#6D4C41;" points="413.333,240.333 255.571,240.333 255.571,429 363.333,429 "/>
<rect x="231.67" y="60" style="fill:#8C6E63;" width="48.667" height="233"/>
<rect x="255.57" y="60" style="fill:#795548;" width="24.762" height="233"/>
<path style="fill:#DC2C00;" d="M215.083,176.5c0-14.974-11.112-27.345-25.538-29.338c-1.992-14.426-14.364-25.537-29.337-25.537
	s-27.345,11.112-29.337,25.538c-14.426,1.992-25.537,14.364-25.537,29.338s11.111,27.345,25.537,29.337
	c1.992,14.426,14.364,25.537,29.337,25.537s27.345-11.111,29.337-25.537C203.972,203.846,215.083,191.474,215.083,176.5z"/>
<path style="fill:#BE360C;" d="M189.546,147.162c-1.986-14.386-14.295-25.473-29.212-25.535v109.744
	c14.917-0.062,27.226-11.149,29.212-25.534c14.426-1.992,25.538-14.364,25.538-29.338S203.972,149.155,189.546,147.162z"/>
<circle style="fill:#FE8965;" cx="160.21" cy="176.5" r="18.625"/>
<path style="fill:#FE7043;" d="M178.833,176.5c0-10.244-8.272-18.551-18.5-18.619v37.237
	C170.562,195.051,178.833,186.744,178.833,176.5z"/>
<path style="fill:#DC2C00;" d="M378.25,226c0-14.974-11.112-27.345-25.538-29.338c-1.992-14.426-14.364-25.537-29.337-25.537
	s-27.345,11.112-29.337,25.538C279.611,198.655,268.5,211.026,268.5,226s11.111,27.345,25.537,29.337
	c1.992,14.426,14.364,25.537,29.337,25.537s27.345-11.111,29.337-25.537C367.138,253.346,378.25,240.974,378.25,226z"/>
<path style="fill:#BE360C;" d="M352.712,196.662c-1.992-14.426-14.364-25.537-29.337-25.537c-0.181,0-0.361,0.009-0.541,0.012
	v109.725c0.181,0.003,0.36,0.012,0.541,0.012c14.974,0,27.345-11.111,29.337-25.537c14.426-1.992,25.538-14.364,25.538-29.338
	S367.138,198.655,352.712,196.662z"/>
<circle style="fill:#FE8965;" cx="323.37" cy="226" r="18.625"/>
<path style="fill:#FE7043;" d="M323.375,207.375c-0.183,0-0.36,0.022-0.542,0.027v37.195c0.182,0.005,0.359,0.027,0.542,0.027
	c10.286,0,18.625-8.339,18.625-18.625S333.661,207.375,323.375,207.375z"/>
<path style="fill:#FE9F00;" d="M264.75,231.375c0-14.974-11.112-27.345-25.538-29.338c-1.992-14.426-14.364-25.537-29.337-25.537
	s-27.345,11.112-29.337,25.538C166.112,204.03,155,216.401,155,231.375s11.111,27.345,25.537,29.337
	c1.992,14.426,14.364,25.537,29.337,25.537s27.345-11.111,29.337-25.537C253.639,258.721,264.75,246.349,264.75,231.375z"/>
<path style="fill:#FE8E00;" d="M239.212,202.037c-1.992-14.426-14.364-25.537-29.337-25.537c-0.046,0-0.091,0.003-0.137,0.003
	v109.744c0.046,0,0.091,0.003,0.137,0.003c14.974,0,27.345-11.111,29.337-25.537c14.426-1.992,25.538-14.364,25.538-29.338
	S253.638,204.03,239.212,202.037z"/>
<circle style="fill:#FE6F00;" cx="209.87" cy="231.37" r="18.625"/>
<path style="fill:#E55100;" d="M209.875,212.75c-0.046,0-0.091,0.007-0.137,0.007v37.236c0.046,0,0.091,0.007,0.137,0.007
	c10.286,0,18.625-8.339,18.625-18.625S220.162,212.75,209.875,212.75z"/>
<path style="fill:#FE9F00;" d="M439.041,198.542c0-13.655-10.133-24.937-23.288-26.754C413.937,158.633,402.655,148.5,389,148.5
	s-24.937,10.133-26.753,23.288c-13.155,1.817-23.288,13.099-23.288,26.754s10.132,24.937,23.288,26.753
	c1.816,13.155,13.099,23.288,26.753,23.288c13.655,0,24.937-10.133,26.753-23.288C428.909,223.479,439.041,212.197,439.041,198.542z
	"/>
<path style="fill:#FE8E00;" d="M415.753,171.788C413.937,158.633,402.655,148.5,389,148.5c-0.032,0-0.063,0.002-0.095,0.002v100.079
	c0.032,0,0.063,0.002,0.095,0.002c13.655,0,24.937-10.133,26.753-23.288c13.156-1.817,23.288-13.099,23.288-26.754
	C439.042,184.887,428.909,173.605,415.753,171.788z"/>
<circle style="fill:#FE6F00;" cx="389" cy="198.54" r="16.985"/>
<path style="fill:#E55100;" d="M389,181.557c-0.032,0-0.063,0.005-0.095,0.005v33.959c0.032,0,0.063,0.005,0.095,0.005
	c9.38,0,16.985-7.604,16.985-16.984S398.38,181.557,389,181.557z"/>
<g>
</g>
<g>
</g>
<g>
</g>
<g>
</g>
<g>
</g>
<g>
</g>
<g>
</g>
<g>
</g>
<g>
</g>
<g>
</g>
<g>
</g>
<g>
</g>
<g>
</g>
<g>
</g>
<g>
</g>
</svg>
