<?xml version="1.0" encoding="iso-8859-1"?>
<!-- Generator: Adobe Illustrator 19.0.0, SVG Export Plug-In . SVG Version: 6.00 Build 0)  -->
<svg version="1.1" id="Capa_1" xmlns="http://www.w3.org/2000/svg" xmlns:xlink="http://www.w3.org/1999/xlink" x="0px" y="0px"
	 viewBox="0 0 512 512" style="enable-background:new 0 0 512 512;" xml:space="preserve">
<circle style="fill:#228CE4;" cx="256" cy="256" r="256"/>
<path style="fill:#0666A9;" d="M512,256c0-13.257-1.008-26.278-2.951-38.992l-65.865-65.865l-353.767,1.545l-9.383,17.145
	l149.433,149.434L89.418,400.488l103.726,103.726C213.256,509.292,234.311,512,256,512C397.385,512,512,397.385,512,256z"/>
<polygon style="fill:#FEEBB2;" points="422.582,400.488 89.418,400.488 89.418,155.988 256,55.988 422.582,155.988 "/>
<g>
	<polygon style="fill:#FEE47F;" points="422.582,155.988 256,55.988 256,56.246 256,400.488 422.582,400.488 	"/>
	<polygon style="fill:#FEE47F;" points="431.964,169.833 256,64.202 80.035,169.833 68.815,151.143 256,38.775 443.185,151.143 	"/>
</g>
<polygon style="fill:#FED44F;" points="256,64.202 431.964,169.833 443.185,151.143 256,38.775 "/>
<rect x="144.33" y="222.7" style="fill:#FEB200;" width="223.33" height="177.78"/>
<rect x="256.02" y="222.7" style="fill:#FEAA00;" width="111.65" height="177.79"/>
<rect x="133.67" y="222.7" style="fill:#FE8E00;" width="244.67" height="33.762"/>
<rect x="256.02" y="222.7" style="fill:#FE6F00;" width="122.32" height="33.762"/>
<circle style="fill:#FEB200;" cx="256" cy="135.91" r="33.5"/>
<path style="fill:#FEAA00;" d="M256,169.406c18.501,0,33.5-14.998,33.5-33.5c0-18.501-14.999-33.5-33.5-33.5V169.406z"/>
<g>
</g>
<g>
</g>
<g>
</g>
<g>
</g>
<g>
</g>
<g>
</g>
<g>
</g>
<g>
</g>
<g>
</g>
<g>
</g>
<g>
</g>
<g>
</g>
<g>
</g>
<g>
</g>
<g>
</g>
</svg>
