<?xml version="1.0" encoding="iso-8859-1"?>
<!-- Generator: Adobe Illustrator 19.0.0, SVG Export Plug-In . SVG Version: 6.00 Build 0)  -->
<svg version="1.1" id="Capa_1" xmlns="http://www.w3.org/2000/svg" xmlns:xlink="http://www.w3.org/1999/xlink" x="0px" y="0px"
	 viewBox="0 0 512 512" style="enable-background:new 0 0 512 512;" xml:space="preserve">
<circle style="fill:#FE7043;" cx="256" cy="256" r="256"/>
<path style="fill:#FE5722;" d="M103.975,247.851l246.247,246.248C444.98,456.568,512,364.113,512,256
	c0-5.351-0.184-10.659-0.508-15.928l-86.644-86.644L103.975,247.851z"/>
<path style="fill:#EBEEF0;" d="M295.582,313.055c8.539-17.241,29.168-25.214,47.083-18.197c0.138,0.054,0.276,0.109,0.413,0.165
	c9.013,3.651,19.292-0.422,23.228-9.314l58.542-132.282L191.469,50.148l-87.494,197.703l167.958,74.328
	c8.893,3.935,19.239,0.036,23.455-8.727C295.452,313.319,295.517,313.187,295.582,313.055z"/>
<g>
	<path style="fill:#CED7DB;" d="M103.975,247.851l167.958,74.328c8.893,3.935,19.239,0.036,23.455-8.727
		c0.064-0.132,0.128-0.264,0.194-0.396c8.539-17.241,29.168-25.214,47.083-18.197c0.138,0.054,0.276,0.109,0.413,0.165
		c9.013,3.651,19.292-0.422,23.228-9.314l17.565-39.689l-234.694-100.31L103.975,247.851z"/>
	
		<rect x="146.927" y="44.686" transform="matrix(-0.9145 -0.4047 0.4047 -0.9145 237.3499 355.754)" style="fill:#CED7DB;" width="18.695" height="216.21"/>
</g>
<polygon style="fill:#AFBDC4;" points="149.177,145.711 103.975,247.851 121.07,255.416 166.368,153.059 "/>
<path style="fill:#CED7DB;" d="M343.078,295.023c9.013,3.651,19.293-0.422,23.228-9.314l58.542-132.282l-15.98-7.072
	l-65.793,148.666C343.076,295.022,343.077,295.023,343.078,295.023z"/>
<path style="fill:#AFBDC4;" d="M343.075,295.022c0.001,0,0.002,0.001,0.003,0.001c9.013,3.651,19.292-0.422,23.228-9.314
	l17.565-39.689l-16.07-6.868L343.075,295.022z"/>
<path style="fill:#39B54A;" d="M293.392,249.631c8.3-18.756-0.175-40.689-18.931-48.989l-11.576-5.123l0.082-0.186
	c17.868,5.776,37.574-2.772,45.341-20.324l6.483-14.649l-14.649-6.483c-18.756-8.3-40.689,0.176-48.99,18.932l-4.783,10.808
	l-54.425-24.085l-3.399,7.681L258.112,198l-4.783,10.808c-8.3,18.756,0.175,40.689,18.931,48.989l14.649,6.483L293.392,249.631z"/>
<path style="fill:#009245;" d="M274.461,200.642l-11.576-5.123l0.082-0.186c1.764,0.57,3.547,0.995,5.334,1.292l-78.014-33.344
	l-1.74,3.933L258.112,198l-4.783,10.808c-8.3,18.756,0.175,40.689,18.931,48.989l14.649,6.482l6.483-14.648
	C301.692,230.875,293.216,208.942,274.461,200.642z"/>
<g>
	<circle style="fill:#6D4C41;" cx="390.25" cy="351.25" r="10.75"/>
	<circle style="fill:#6D4C41;" cx="331.75" cy="323.71" r="10.75"/>
</g>
<g>
	<circle style="fill:#5D4037;" cx="290.25" cy="393.71" r="10.75"/>
	<circle style="fill:#5D4037;" cx="357.25" cy="421.21" r="10.75"/>
</g>
<circle style="fill:#6D4C41;" cx="338.25" cy="375.71" r="10.75"/>
<path style="fill:#5D4037;" d="M329.226,369.882c-1.088,1.68-1.726,3.679-1.726,5.83c0,5.937,4.813,10.75,10.75,10.75
	c4.113,0,7.684-2.312,9.491-5.706L329.226,369.882z"/>
<g>
</g>
<g>
</g>
<g>
</g>
<g>
</g>
<g>
</g>
<g>
</g>
<g>
</g>
<g>
</g>
<g>
</g>
<g>
</g>
<g>
</g>
<g>
</g>
<g>
</g>
<g>
</g>
<g>
</g>
</svg>
