<?xml version="1.0" encoding="iso-8859-1"?>
<!-- Generator: Adobe Illustrator 19.0.0, SVG Export Plug-In . SVG Version: 6.00 Build 0)  -->
<svg version="1.1" id="Capa_1" xmlns="http://www.w3.org/2000/svg" xmlns:xlink="http://www.w3.org/1999/xlink" x="0px" y="0px"
	 viewBox="0 0 512 512" style="enable-background:new 0 0 512 512;" xml:space="preserve">
<circle style="fill:#7AE5FE;" cx="256" cy="256" r="256"/>
<g>
	<path style="fill:#00BED2;" d="M118.849,177.656l-35.895,17.711L371.9,484.314c58.332-29.671,103.762-81.04,125.687-143.477
		L314.372,157.622l-47.454,50.242l-90.537-90.537l-1.955,8.636l-48.339-48.339l-21.788,21.788L240.607,235.72l-0.367,0.388
		l-63.859-63.859l-4.141,2.582l-35.307-35.35l-35.52,8.007l114.441,114.441l-6.184,6.547L118.849,177.656z"/>
	<path style="fill:#00BED2;" d="M379.105,106.221l23.894,23.894l-26.122,10.414l-19.557-19.557l-30.337,26.515l26.85,26.85
		l-18.214-2.088l163.647,163.647C507.519,310.754,512,283.902,512,256c0-31.897-5.851-62.423-16.509-90.586l-87.79-87.79
		L379.105,106.221z"/>
</g>
<path style="fill:#39B54A;" d="M4.129,302C25.8,421.43,130.32,512,256,512s230.2-90.57,251.871-210H4.129z"/>
<path style="fill:#009245;" d="M255.571,302v209.995c0.143,0,0.285,0.005,0.429,0.005c125.68,0,230.2-90.57,251.871-210H255.571z"/>
<g>
	<path style="fill:#FFFFFF;" d="M156.42,140.678c-6.017-6.017-6.017-15.771,0-21.788s15.771-6.017,21.788,0
		s6.809,28.597,6.809,28.597S162.437,146.695,156.42,140.678z"/>
	<path style="fill:#FFFFFF;" d="M104.299,99.412c-6.017-6.017-6.017-15.771,0-21.788c6.017-6.017,15.771-6.017,21.788,0
		s6.809,28.597,6.809,28.597S110.315,105.429,104.299,99.412z"/>
	<path style="fill:#FFFFFF;" d="M110.182,151.668c-8.443-1.054-14.434-8.752-13.38-17.196c1.054-8.443,8.752-14.434,17.196-13.38
		c8.443,1.054,22.935,18.388,22.935,18.388S118.625,152.722,110.182,151.668z"/>
	<path style="fill:#FFFFFF;" d="M151.659,188.155c-8.507,0.171-15.542-6.586-15.713-15.093s6.587-15.541,15.094-15.712
		s25.34,14.899,25.34,14.899S160.166,187.984,151.659,188.155z"/>
	<path style="fill:#FFFFFF;" d="M100.517,200.636c-8.005,2.884-16.832-1.267-19.716-9.272s1.268-16.832,9.273-19.716
		s28.775,6.008,28.775,6.008S108.522,197.751,100.517,200.636z"/>
</g>
<g>
	<path style="fill:#E6E6E6;" d="M355.58,140.678c6.017-6.017,6.017-15.771,0-21.788c-6.017-6.017-15.771-6.017-21.788,0
		s-6.809,28.597-6.809,28.597S349.563,146.695,355.58,140.678z"/>
	<path style="fill:#E6E6E6;" d="M407.701,99.412c6.017-6.017,6.017-15.771,0-21.788c-6.017-6.017-15.771-6.017-21.788,0
		s-6.809,28.597-6.809,28.597S401.685,105.429,407.701,99.412z"/>
	<path style="fill:#E6E6E6;" d="M401.818,151.668c8.443-1.054,14.434-8.752,13.38-17.196s-8.752-14.434-17.196-13.38
		c-8.443,1.054-22.935,18.388-22.935,18.388S393.375,152.722,401.818,151.668z"/>
	<path style="fill:#E6E6E6;" d="M360.341,188.155c8.507,0.171,15.542-6.586,15.713-15.093c0.171-8.507-6.587-15.541-15.094-15.712
		s-25.34,14.899-25.34,14.899S351.834,187.984,360.341,188.155z"/>
	<path style="fill:#E6E6E6;" d="M411.483,200.636c8.005,2.884,16.832-1.267,19.716-9.272s-1.268-16.832-9.273-19.716
		s-28.775,6.008-28.775,6.008S403.478,197.751,411.483,200.636z"/>
</g>
<rect x="222" y="204.5" style="fill:#455A64;" width="68" height="68"/>
<rect x="255.57" y="204.5" style="fill:#37474F;" width="34.429" height="68"/>
<rect x="195.25" y="160" style="fill:#607D8A;" width="121.5" height="68"/>
<rect x="255.57" y="160" style="fill:#546E7A;" width="61.18" height="68"/>
<rect x="208.1" y="250" style="fill:#607D8A;" width="95.79" height="135.7"/>
<rect x="255.57" y="250" style="fill:#546E7A;" width="48.32" height="135.7"/>
<g>
</g>
<g>
</g>
<g>
</g>
<g>
</g>
<g>
</g>
<g>
</g>
<g>
</g>
<g>
</g>
<g>
</g>
<g>
</g>
<g>
</g>
<g>
</g>
<g>
</g>
<g>
</g>
<g>
</g>
</svg>
