<?xml version="1.0" encoding="iso-8859-1"?>
<!-- Generator: Adobe Illustrator 19.0.0, SVG Export Plug-In . SVG Version: 6.00 Build 0)  -->
<svg version="1.1" id="Capa_1" xmlns="http://www.w3.org/2000/svg" xmlns:xlink="http://www.w3.org/1999/xlink" x="0px" y="0px"
	 viewBox="0 0 512 512" style="enable-background:new 0 0 512 512;" xml:space="preserve">
<circle style="fill:#7AE5FE;" cx="256" cy="256" r="256"/>
<path style="fill:#00BED2;" d="M512,256c0-18.252-1.925-36.052-5.556-53.222L403.667,100L280.935,231.454l-52.841-52.841
	L137.134,262l226.378,226.378C451.182,447.747,512,358.983,512,256z"/>
<path style="fill:#39B54A;" d="M359.167,100C302.189,100,256,146.189,256,203.167v35.167h-0.565
	C250.02,186.448,206.152,146,152.833,146h-44.5v44.5c0,56.977,46.189,103.167,103.167,103.167h32.833V459h23.333V247.667H300.5
	c56.977,0,103.167-46.189,103.167-103.167V100H359.167z"/>
<path style="fill:#009245;" d="M359.167,100C302.189,100,256,146.189,256,203.167v35.167h-0.271V459h11.938V247.667H300.5
	c56.977,0,103.167-46.189,103.167-103.167V100H359.167z"/>
<path style="fill:#795548;" d="M18.764,352.333C56.826,445.971,148.694,512,256,512s199.174-66.029,237.236-159.667H18.764z"/>
<path style="fill:#6D4C41;" d="M255.571,352.333v159.663c0.143,0,0.285,0.004,0.429,0.004c107.306,0,199.174-66.029,237.236-159.667
	H255.571z"/>
<g>
</g>
<g>
</g>
<g>
</g>
<g>
</g>
<g>
</g>
<g>
</g>
<g>
</g>
<g>
</g>
<g>
</g>
<g>
</g>
<g>
</g>
<g>
</g>
<g>
</g>
<g>
</g>
<g>
</g>
</svg>
