<?xml version="1.0" encoding="iso-8859-1"?>
<!-- Generator: Adobe Illustrator 19.0.0, SVG Export Plug-In . SVG Version: 6.00 Build 0)  -->
<svg version="1.1" id="Capa_1" xmlns="http://www.w3.org/2000/svg" xmlns:xlink="http://www.w3.org/1999/xlink" x="0px" y="0px"
	 viewBox="0 0 512 512" style="enable-background:new 0 0 512 512;" xml:space="preserve">
<circle style="fill:#FE7043;" cx="256" cy="256" r="256"/>
<path style="fill:#FE5722;" d="M512,256c0-10.77-0.674-21.381-1.965-31.802L397.126,111.29l-9.472,12.437l-55.998-55.998
	l-16.313,44.448L256,52.833l31.49,124.079L178.903,68.325l66.229,121.671L71.312,176.76l70.708,70.708l-85.603,4.948l66.234,66.234
	l-50.742,10.863l53.931,53.931l-10.966,10.099L232.221,510.89C240.052,511.613,247.98,512,256,512C397.385,512,512,397.385,512,256z
	"/>
<path style="fill:#F9C41E;" d="M455.583,252.417l-54.575-21.146c-18.218-7.059-41.576-10.981-65.516-11.78
	c16.363-17.493,30.106-36.784,37.997-54.657l23.638-53.543l-53.543,23.638c-17.873,7.891-37.164,21.634-54.657,37.997
	c-0.8-23.94-4.722-47.299-11.78-65.516L256,52.833l-21.146,54.575c-7.059,18.218-10.981,41.577-11.78,65.517
	c-17.493-16.363-36.784-30.107-54.657-37.997l-53.543-23.638l23.638,53.543c7.891,17.873,21.635,37.164,37.997,54.657
	c-23.94,0.8-47.299,4.721-65.517,11.78l-54.575,21.146l54.575,21.146c18.218,7.059,41.577,10.981,65.517,11.78
	c-16.363,17.493-30.107,36.784-37.997,54.657l-23.638,53.543l53.543-23.638c17.873-7.891,37.164-21.635,54.657-37.997
	c0.8,23.94,4.722,47.299,11.78,65.516L256,452l21.146-54.575c7.059-18.218,10.981-41.577,11.78-65.517
	c17.493,16.363,36.784,30.107,54.657,37.997l53.543,23.638L373.489,340c-7.891-17.873-21.635-37.164-37.997-54.657
	c23.94-0.8,47.298-4.722,65.516-11.78L455.583,252.417z"/>
<path style="fill:#FE9A35;" d="M256,452l21.146-54.575c7.059-18.218,10.981-41.577,11.78-65.517
	c17.493,16.363,36.784,30.107,54.657,37.997l53.543,23.638L373.489,340c-7.891-17.873-21.635-37.164-37.997-54.657
	c23.94-0.8,47.298-4.722,65.516-11.78l54.575-21.146l-54.575-21.146c-18.218-7.059-41.576-10.981-65.516-11.78
	c16.363-17.493,30.106-36.784,37.997-54.657l23.638-53.543l-53.543,23.638c-17.873,7.891-37.164,21.634-54.657,37.997
	c-0.8-23.94-4.722-47.299-11.78-65.516L256,52.833V452z"/>
<path style="fill:#FED44F;" d="M440.688,328.073l-42.486-40.256c-14.182-13.438-34.311-25.922-56.161-35.736
	c21.773-9.985,41.803-22.626,55.88-36.174l42.171-40.587l-58.508,1.577c-19.53,0.527-42.591,5.932-64.982,14.443
	c8.335-22.456,13.561-45.559,13.935-65.092l1.12-58.518l-40.256,42.486c-13.438,14.182-25.922,34.311-35.737,56.161
	c-9.985-21.773-22.626-41.803-36.174-55.88l-40.587-42.171l1.577,58.508c0.526,19.531,5.932,42.591,14.443,64.982
	c-22.456-8.335-45.559-13.561-65.093-13.934l-58.518-1.12l42.486,40.256c14.182,13.438,34.311,25.922,56.161,35.737
	c-21.773,9.985-41.803,22.626-55.88,36.174l-42.171,40.587l58.508-1.577c19.53-0.526,42.591-5.932,64.982-14.442
	c-8.335,22.456-13.561,45.558-13.934,65.092l-1.12,58.518l40.256-42.486c13.438-14.182,25.922-34.311,35.737-56.161
	c9.985,21.773,22.626,41.803,36.174,55.88l40.587,42.171L331.519,378c-0.526-19.53-5.932-42.591-14.442-64.982
	c22.456,8.335,45.558,13.56,65.092,13.934L440.688,328.073z"/>
<path style="fill:#FEC300;" d="M440.688,328.073l-42.486-40.256c-14.182-13.438-34.311-25.922-56.161-35.736
	c21.773-9.985,41.803-22.626,55.88-36.174l42.171-40.587l-58.508,1.577c-19.53,0.527-42.591,5.932-64.982,14.443
	c8.335-22.456,13.561-45.559,13.935-65.092l1.12-58.518l-40.256,42.486c-13.438,14.182-25.922,34.311-35.737,56.161
	c-0.03-0.066-0.062-0.131-0.093-0.198v173.943c0.254-0.556,0.514-1.107,0.765-1.665c9.985,21.773,22.626,41.803,36.174,55.88
	l40.587,42.171L331.519,378c-0.526-19.53-5.932-42.591-14.442-64.982c22.456,8.335,45.558,13.56,65.092,13.934L440.688,328.073z"/>
<circle style="fill:#6D4C41;" cx="256" cy="256" r="106.33"/>
<path style="fill:#5D4037;" d="M256,149.667c-0.143,0-0.285,0.005-0.429,0.005v212.656c0.143,0,0.285,0.005,0.429,0.005
	c58.726,0,106.333-47.607,106.333-106.333S314.726,149.667,256,149.667z"/>
<circle style="fill:#8C6E63;" cx="256" cy="256" r="79.46"/>
<path style="fill:#795548;" d="M256,176.54c-0.144,0-0.285,0.01-0.429,0.011v158.898c0.144,0.001,0.285,0.011,0.429,0.011
	c43.884,0,79.46-35.575,79.46-79.46S299.884,176.54,256,176.54z"/>
<g>
</g>
<g>
</g>
<g>
</g>
<g>
</g>
<g>
</g>
<g>
</g>
<g>
</g>
<g>
</g>
<g>
</g>
<g>
</g>
<g>
</g>
<g>
</g>
<g>
</g>
<g>
</g>
<g>
</g>
</svg>
